<svg xmlns="http://www.w3.org/2000/svg" enable-background="new 0 0 512 512" version="1" viewBox="0 0 512 512"><path fill="#54B0FF" d="M93.867,12.8h326.016C470.547,12.8,512,54.253,512,104.918v314.965C512,470.547,470.547,512,419.883,512
			H92.118C41.453,512,0,470.547,0,419.882V106.667C0,54.933,42.134,12.8,93.867,12.8"/><path fill="#001934" d="M98.133,34.133h317.482c41.45,0,75.051,33.601,75.051,75.051v306.431c0,41.45-33.602,75.051-75.051,75.051
			H96.384c-41.45,0-75.051-33.601-75.051-75.051V110.933C21.333,68.267,55.466,34.133,98.133,34.133"/><path fill="#FFF" d="M130.884,147.715c0-1.301,0.434-2.385,2.169-2.385c13.662-0.651,33.613-1.084,54.431-1.084
			c58.551,0,84.14,32.095,84.14,73.297c0,53.78-38.817,76.767-86.525,76.767c-8.024,0-10.843-0.434-16.481-0.434v81.321
			c0,1.735-0.651,2.385-2.385,2.385h-32.745c-1.735,0-2.385-0.651-2.385-2.385l0-227.481H130.884z M168.617,260.046
			c4.988,0.434,8.674,0.434,17.132,0.434c24.721,0,47.925-8.674,47.925-42.287c0-26.89-16.481-40.552-44.672-40.552
			c-8.457,0-16.481,0.434-20.168,0.651v81.754H168.617z M292.444,246.448h19.499v128.777c0,1.286,0.643,2.357,2.357,2.357h32.783
			c1.928,0,2.357-1.071,2.357-2.357V246.448h27.212c1.714-0.214,2.143-0.643,2.143-2.357v-28.712c0-1.286-0.429-1.714-2.143-1.714
			H349.44v-10.714c0-16.713,6-25.284,17.999-25.284c2.571,0,6.428,0.429,9.214,1.071c1.714,0.214,2.357-0.429,2.357-2.143v-27.641
			c0-1.714-0.429-2.357-2.143-3c-3.428-1.286-7.928-1.714-14.142-1.714c-20.784,0-35.569,7.928-44.14,25.498
			c-4.714,9.428-6.857,20.356-6.857,33.212v10.714h-19.284c-1.286,0-1.714,0.429-1.714,2.143v28.498
			c0,1.714,0.429,2.357,1.714,2.357V246.448z"/><path fill="#54B0FF" d="M130.884,147.715c0-1.301,0.434-2.385,2.169-2.385c13.662-0.651,33.613-1.084,54.431-1.084
				c58.551,0,84.14,32.095,84.14,73.297c0,53.78-38.817,76.767-86.525,76.767c-8.024,0-10.843-0.434-16.481-0.434v81.321
				c0,1.735-0.651,2.385-2.385,2.385h-32.745c-1.735,0-2.385-0.651-2.385-2.385l0-227.481H130.884z M168.617,260.046
				c4.988,0.434,8.674,0.434,17.132,0.434c24.721,0,47.925-8.674,47.925-42.287c0-26.89-16.481-40.552-44.672-40.552
				c-8.457,0-16.481,0.434-20.168,0.651v81.754H168.617z M292.444,246.448h19.499v128.777c0,1.286,0.643,2.357,2.357,2.357h32.783
				c1.928,0,2.357-1.071,2.357-2.357V246.448h27.212c1.714-0.214,2.143-0.643,2.143-2.357v-28.712c0-1.286-0.429-1.714-2.143-1.714
				H349.44v-10.714c0-16.713,6-25.284,17.999-25.284c2.571,0,6.428,0.429,9.214,1.071c1.714,0.214,2.357-0.429,2.357-2.143v-27.641
				c0-1.714-0.429-2.357-2.143-3c-3.428-1.286-7.928-1.714-14.142-1.714c-20.784,0-35.569,7.928-44.14,25.498
				c-4.714,9.428-6.857,20.356-6.857,33.212v10.714h-19.284c-1.286,0-1.714,0.429-1.714,2.143v28.498
				c0,1.714,0.429,2.357,1.714,2.357V246.448z" opacity=".15"/></svg>